<?xml version="1.0" encoding="UTF-8"?>
<svg width="150px" height="106px" viewBox="0 0 150 106" xmlns="http://www.w3.org/2000/svg" xmlns:xlink="http://www.w3.org/1999/xlink" version="1.1">
 <!-- Generated by Pixelmator Pro 1.5 -->
 <g id="group">
  <path id="Path" d="M11.575 0 L138.012 0 C141.082 0 144.026 1.218 146.197 3.386 148.368 5.553 149.587 8.494 149.587 11.559 L149.587 94.252 C149.587 100.636 144.405 105.812 138.012 105.812 L11.575 105.812 C8.505 105.812 5.561 104.594 3.39 102.426 1.219 100.258 0 97.318 0 94.252 L0 11.559 C0 5.175 5.182 0 11.575 0" fill="#aa0000" fill-opacity="1" stroke="none"/>
  <g id="group-1">
   <path id="Path-1" d="M83.952 18.654 C83.952 23.276 80.468 27.022 76.171 27.022 71.874 27.022 68.39 23.276 68.39 18.654 68.39 14.033 71.874 10.287 76.171 10.287 80.468 10.287 83.952 14.033 83.952 18.654 Z" fill="#000000" fill-opacity="1" stroke="none"/>
   <path id="Path-2" d="M72.069 55.579 C73.887 55.579 75.361 57.051 75.361 58.866 L75.361 92.935 C75.361 94.75 73.887 96.222 72.069 96.222 70.251 96.222 68.777 94.75 68.777 92.935 L68.777 58.866 C68.777 57.051 70.251 55.579 72.069 55.579" fill="#000000" fill-opacity="1" stroke="none"/>
   <path id="Path-3" d="M80.649 55.579 C82.467 55.579 83.941 57.051 83.941 58.866 L83.941 92.935 C83.941 94.75 82.467 96.222 80.649 96.222 78.831 96.222 77.357 94.75 77.357 92.935 L77.357 58.866 C77.357 57.051 78.831 55.579 80.649 55.579" fill="#000000" fill-opacity="1" stroke="none"/>
   <path id="Path-4" d="M83.19 28.079 L83.19 50.706 70.071 50.706 70.071 28.203 C65.843 28.424 62.661 28.848 62.728 29.51 62.932 31.524 64.307 32.004 64.275 34.712 66.767 40.839 65.904 57.402 64.079 59.316 L63.986 59.316 64.038 59.368 63.986 59.419 64.079 59.419 75.393 70.975 76.383 69.966 77.373 70.975 88.677 59.419 88.77 59.419 88.728 59.368 88.77 59.316 88.677 59.316 C86.421 54.839 86.821 40.911 87.79 35.155 88.11 31.798 89.603 30.263 90.853 28.985 91.298 28.531 87.82 28.212 83.19 28.079 Z" fill="#000000" fill-opacity="1" stroke="none"/>
   <path id="Path-5" d="M89.379 28.414 C89.3 28.418 89.218 28.424 89.139 28.435 87.86 28.606 86.97 29.771 87.141 31.047 87.423 35.435 88.91 40.342 88.774 44.62 L88.496 55.539 C88.468 56.612 89.311 57.492 90.386 57.509 L91.359 57.523 C92.434 57.54 93.322 56.691 93.349 55.618 L93.628 44.698 C93.094 40.021 92.391 35.176 91.754 30.429 91.594 29.232 90.561 28.376 89.379 28.414 Z" fill="#000000" fill-opacity="1" stroke="none"/>
   <path id="Path-6" d="M55.216 44.247 C55.73 44.588 56.359 44.711 56.964 44.589 57.569 44.468 58.101 44.111 58.443 43.597 L65.703 32.684 C66.044 32.171 66.168 31.543 66.046 30.938 65.923 30.334 65.566 29.803 65.052 29.462 64.538 29.121 63.909 28.998 63.304 29.119 62.698 29.241 62.167 29.598 61.825 30.112 L54.565 41.025 C54.224 41.538 54.1 42.166 54.222 42.771 54.344 43.375 54.702 43.906 55.216 44.247" fill="#000000" fill-opacity="1" stroke="none"/>
   <path id="Path-7" d="M57.525 44.25 C56.396 44.865 54.982 44.451 54.366 43.324 L48.076 31.827 C47.78 31.286 47.711 30.65 47.885 30.058 48.059 29.466 48.461 28.968 49.003 28.672 49.544 28.377 50.182 28.308 50.774 28.482 51.366 28.655 51.865 29.057 52.161 29.598 L58.451 41.096 C58.747 41.637 58.816 42.273 58.642 42.865 58.468 43.456 58.066 43.954 57.525 44.25" fill="#000000" fill-opacity="1" stroke="none"/>
   <path id="Path-8" d="M49.74 21.695 C45.149 21.695 41.413 24.797 41.28 28.667 L58.203 28.667 C58.07 24.797 54.331 21.695 49.74 21.695 Z" fill="#000000" fill-opacity="1" stroke="none"/>
   <path id="Path-9" d="M49.377 20.216 C48.543 20.216 47.864 21.25 47.84 22.539 L50.914 22.539 C50.889 21.25 50.21 20.216 49.377 20.216 Z" fill="#000000" fill-opacity="1" stroke="none"/>
   <path id="Path-10" d="M72.302 26.849 L72.302 30.828 76.17 29.443 80.04 30.828 80.04 26.849 76.17 28.234 72.302 26.849 Z" fill="#000000" fill-opacity="1" stroke="none"/>
   <path id="Path-11" d="M77.017 32.429 C77.017 32.896 76.638 33.274 76.171 33.274 75.704 33.274 75.325 32.896 75.325 32.429 75.325 31.962 75.704 31.584 76.171 31.584 76.638 31.584 77.017 31.962 77.017 32.429 Z" fill="#000000" fill-opacity="1" stroke="none"/>
   <path id="Path-12" d="M77.017 39.24 C77.017 39.706 76.638 40.084 76.171 40.084 75.704 40.084 75.325 39.706 75.325 39.24 75.325 38.773 75.704 38.395 76.171 38.395 76.638 38.395 77.017 38.773 77.017 39.24 Z" fill="#000000" fill-opacity="1" stroke="none"/>
   <path id="Path-13" d="M77.017 46.05 C77.017 46.516 76.638 46.895 76.171 46.895 75.704 46.895 75.325 46.516 75.325 46.05 75.325 45.583 75.704 45.205 76.171 45.205 76.638 45.205 77.017 45.583 77.017 46.05 Z" fill="#000000" fill-opacity="1" stroke="none"/>
   <path id="Path-14" d="M60.014 28.681 C60.014 29.09 55.417 29.422 49.746 29.422 44.074 29.422 39.477 29.09 39.477 28.681 39.477 28.272 44.074 27.941 49.746 27.941 55.417 27.941 60.014 28.272 60.014 28.681 Z" fill="#000000" fill-opacity="1" stroke="none"/>
  </g>
  <g id="group-2">
   <path id="Path-15" d="M83.292 17.995 C83.292 22.617 79.808 26.363 75.511 26.363 71.214 26.363 67.73 22.617 67.73 17.995 67.73 13.374 71.214 9.628 75.511 9.628 79.808 9.628 83.292 13.374 83.292 17.995 Z" fill="#ffffff" fill-opacity="1" stroke="none"/>
   <path id="Path-16" d="M71.409 54.92 C73.227 54.92 74.701 56.392 74.701 58.207 L74.701 92.276 C74.701 94.091 73.227 95.563 71.409 95.563 69.591 95.563 68.117 94.091 68.117 92.276 L68.117 58.207 C68.117 56.392 69.591 54.92 71.409 54.92" fill="#ffffff" fill-opacity="1" stroke="none"/>
   <path id="Path-17" d="M79.989 54.92 C81.807 54.92 83.281 56.392 83.281 58.207 L83.281 92.276 C83.281 94.091 81.807 95.563 79.989 95.563 78.171 95.563 76.697 94.091 76.697 92.276 L76.697 58.207 C76.697 56.392 78.171 54.92 79.989 54.92" fill="#ffffff" fill-opacity="1" stroke="none"/>
   <path id="Path-18" d="M82.53 27.42 L82.53 50.047 69.411 50.047 69.411 27.543 C65.183 27.765 62.001 28.188 62.068 28.851 62.272 30.865 63.646 31.345 63.615 34.052 66.107 40.18 65.244 56.742 63.419 58.657 L63.326 58.657 63.378 58.709 63.326 58.76 63.419 58.76 74.733 70.316 75.723 69.307 76.713 70.316 88.017 58.76 88.11 58.76 88.068 58.709 88.11 58.657 88.017 58.657 C85.76 54.18 86.161 40.252 87.13 34.495 87.45 31.139 88.943 29.604 90.193 28.326 90.638 27.872 87.16 27.552 82.53 27.42 Z" fill="#ffffff" fill-opacity="1" stroke="none"/>
   <path id="Path-19" d="M88.719 27.755 C88.64 27.759 88.558 27.765 88.479 27.776 87.2 27.947 86.31 29.112 86.481 30.388 86.763 34.776 88.25 39.683 88.114 43.961 L87.836 54.88 C87.808 55.953 88.651 56.833 89.726 56.85 L90.699 56.864 C91.774 56.881 92.662 56.032 92.689 54.958 L92.968 44.039 C92.434 39.362 91.731 34.517 91.094 29.77 90.934 28.573 89.901 27.716 88.719 27.755 Z" fill="#ffffff" fill-opacity="1" stroke="none"/>
   <path id="Path-20" d="M54.556 43.588 C55.07 43.929 55.699 44.052 56.304 43.93 56.909 43.809 57.441 43.452 57.783 42.938 L65.043 32.025 C65.384 31.512 65.508 30.884 65.385 30.279 65.263 29.675 64.906 29.144 64.392 28.803 63.878 28.462 63.249 28.338 62.644 28.46 62.038 28.582 61.506 28.939 61.165 29.453 L53.905 40.366 C53.564 40.879 53.44 41.507 53.562 42.111 53.684 42.716 54.042 43.247 54.556 43.588" fill="#ffffff" fill-opacity="1" stroke="none"/>
   <path id="Path-21" d="M56.865 43.591 C55.736 44.206 54.322 43.792 53.706 42.665 L47.416 31.168 C47.12 30.627 47.051 29.99 47.225 29.399 47.399 28.807 47.801 28.309 48.343 28.013 48.884 27.718 49.522 27.649 50.114 27.823 50.706 27.996 51.205 28.398 51.501 28.939 L57.791 40.436 C58.087 40.978 58.156 41.614 57.982 42.205 57.808 42.797 57.406 43.295 56.865 43.591" fill="#ffffff" fill-opacity="1" stroke="none"/>
   <path id="Path-22" d="M49.08 21.036 C44.489 21.036 40.753 24.138 40.62 28.008 L57.543 28.008 C57.41 24.138 53.671 21.036 49.08 21.036 Z" fill="#ffffff" fill-opacity="1" stroke="none"/>
   <path id="Path-23" d="M48.717 19.557 C47.883 19.557 47.204 20.59 47.18 21.88 L50.254 21.88 C50.229 20.59 49.55 19.557 48.717 19.557 Z" fill="#ffffff" fill-opacity="1" stroke="none"/>
   <path id="Path-24" d="M71.641 26.189 L71.641 30.168 75.51 28.784 79.38 30.168 79.38 26.189 75.51 27.575 71.641 26.189 Z" fill="#ffffff" fill-opacity="1" stroke="none"/>
   <path id="Path-25" d="M76.357 31.77 C76.357 32.237 75.978 32.615 75.511 32.615 75.044 32.615 74.665 32.237 74.665 31.77 74.665 31.303 75.044 30.925 75.511 30.925 75.978 30.925 76.357 31.303 76.357 31.77 Z" fill="#ffffff" fill-opacity="1" stroke="none"/>
   <path id="Path-26" d="M76.357 38.58 C76.357 39.047 75.978 39.425 75.511 39.425 75.044 39.425 74.665 39.047 74.665 38.58 74.665 38.114 75.044 37.735 75.511 37.735 75.978 37.735 76.357 38.114 76.357 38.58 Z" fill="#ffffff" fill-opacity="1" stroke="none"/>
   <path id="Path-27" d="M76.357 45.391 C76.357 45.857 75.978 46.236 75.511 46.236 75.044 46.236 74.665 45.857 74.665 45.391 74.665 44.924 75.044 44.546 75.511 44.546 75.978 44.546 76.357 44.924 76.357 45.391 Z" fill="#ffffff" fill-opacity="1" stroke="none"/>
   <path id="Path-28" d="M59.354 28.022 C59.354 28.431 54.757 28.763 49.086 28.763 43.414 28.763 38.817 28.431 38.817 28.022 38.817 27.613 43.414 27.281 49.086 27.281 54.757 27.281 59.354 27.613 59.354 28.022 Z" fill="#ffffff" fill-opacity="1" stroke="none"/>
  </g>
 </g>
</svg>
